<svg xmlns="http://www.w3.org/2000/svg" viewBox="0 0 930.0 380.0" width="930.0" height="380.0" role="img" aria-label="One MCP client speaks JSON-RPC over stdio to two independent servers, each exposing its own tools, resources and prompts without being compiled into the agent.">
  <title>One MCP client speaks JSON-RPC over stdio to two independent servers, each exposing its own tools, resources and prompts without being compiled into the agent.</title>
  <rect x="44.6" y="166.0" width="110.7" height="38.0" rx="6.0" fill="#e9f5ef" stroke="#147a4a" stroke-width="1.6"/>
  <text x="100.0" y="189.5" text-anchor="middle" font-family="ui-monospace, SFMono-Regular, Menlo, Consolas, monospace" font-size="12.5" fill="#1c1f1c">host: agent</text>
  <rect x="238.4" y="166.0" width="103.2" height="38.0" rx="6.0" fill="#fffdf9" stroke="#ddd8cd" stroke-width="1.4"/>
  <text x="290.0" y="189.5" text-anchor="middle" font-family="ui-monospace, SFMono-Regular, Menlo, Consolas, monospace" font-size="12.5" fill="#1c1f1c">MCP client</text>
  <rect x="524.6" y="58.0" width="110.7" height="54.0" rx="6.0" fill="#fffdf9" stroke="#ddd8cd" stroke-width="1.4"/>
  <text x="580.0" y="81.5" text-anchor="middle" font-family="ui-monospace, SFMono-Regular, Menlo, Consolas, monospace" font-size="12.5" fill="#1c1f1c">MCP server:</text>
  <text x="580.0" y="97.5" text-anchor="middle" font-family="ui-monospace, SFMono-Regular, Menlo, Consolas, monospace" font-size="12.5" fill="#1c1f1c">receipts</text>
  <rect x="524.6" y="263.0" width="110.7" height="54.0" rx="6.0" fill="#fffdf9" stroke="#ddd8cd" stroke-width="1.4"/>
  <text x="580.0" y="286.5" text-anchor="middle" font-family="ui-monospace, SFMono-Regular, Menlo, Consolas, monospace" font-size="12.5" fill="#1c1f1c">MCP server:</text>
  <text x="580.0" y="302.5" text-anchor="middle" font-family="ui-monospace, SFMono-Regular, Menlo, Consolas, monospace" font-size="12.5" fill="#1c1f1c">trace stats</text>
  <rect x="722.1" y="58.0" width="155.8" height="54.0" rx="6.0" fill="#fffdf9" stroke="#ddd8cd" stroke-width="1.4"/>
  <text x="800.0" y="81.5" text-anchor="middle" font-family="ui-monospace, SFMono-Regular, Menlo, Consolas, monospace" font-size="12.5" fill="#1c1f1c">tools, resources,</text>
  <text x="800.0" y="97.5" text-anchor="middle" font-family="ui-monospace, SFMono-Regular, Menlo, Consolas, monospace" font-size="12.5" fill="#1c1f1c">prompts</text>
  <rect x="722.1" y="263.0" width="155.8" height="54.0" rx="6.0" fill="#fffdf9" stroke="#ddd8cd" stroke-width="1.4"/>
  <text x="800.0" y="286.5" text-anchor="middle" font-family="ui-monospace, SFMono-Regular, Menlo, Consolas, monospace" font-size="12.5" fill="#1c1f1c">tools, resources,</text>
  <text x="800.0" y="302.5" text-anchor="middle" font-family="ui-monospace, SFMono-Regular, Menlo, Consolas, monospace" font-size="12.5" fill="#1c1f1c">prompts</text>
  <line x1="155.4" y1="185.0" x2="228.9" y2="185.0" stroke="#6f7570" stroke-width="1.5"/>
  <polygon points="238.4,185.0 228.9,189.6 228.9,180.4" fill="#6f7570"/>
  <line x1="341.6" y1="185.0" x2="516.1" y2="100.0" stroke="#6f7570" stroke-width="1.5"/>
  <polygon points="524.6,95.8 518.1,104.1 514.1,95.8" fill="#6f7570"/>
  <rect x="362.1" y="127.0" width="141.8" height="26.0" rx="3.0" fill="#fffdf9" stroke="#ddd8cd" stroke-width="1.0"/>
  <text x="433.0" y="144.0" text-anchor="middle" font-family="ui-monospace, SFMono-Regular, Menlo, Consolas, monospace" font-size="11.0" fill="#565f5a">JSON-RPC over stdio</text>
  <line x1="341.6" y1="185.0" x2="516.2" y2="274.9" stroke="#6f7570" stroke-width="1.5"/>
  <polygon points="524.6,279.2 514.1,278.9 518.3,270.8" fill="#6f7570"/>
  <rect x="362.1" y="219.0" width="141.8" height="26.0" rx="3.0" fill="#fffdf9" stroke="#ddd8cd" stroke-width="1.0"/>
  <text x="433.0" y="236.0" text-anchor="middle" font-family="ui-monospace, SFMono-Regular, Menlo, Consolas, monospace" font-size="11.0" fill="#565f5a">JSON-RPC over stdio</text>
  <line x1="635.4" y1="85.0" x2="712.6" y2="85.0" stroke="#6f7570" stroke-width="1.5"/>
  <polygon points="722.1,85.0 712.6,89.6 712.6,80.4" fill="#6f7570"/>
  <line x1="635.4" y1="290.0" x2="712.6" y2="290.0" stroke="#6f7570" stroke-width="1.5"/>
  <polygon points="722.1,290.0 712.6,294.6 712.6,285.4" fill="#6f7570"/>
</svg>
