<svg xmlns="http://www.w3.org/2000/svg" viewBox="0 0 890.0 300.0" width="890.0" height="300.0" role="img" aria-label="A corpus is chunked into a vector store; a question is embedded, matched by cosine similarity, and the top-k chunks are assembled into the prompt.">
  <title>A corpus is chunked into a vector store; a question is embedded, matched by cosine similarity, and the top-k chunks are assembled into the prompt.</title>
  <rect x="34.6" y="51.0" width="110.7" height="38.0" rx="6.0" fill="#e9f5ef" stroke="#147a4a" stroke-width="1.6"/>
  <text x="90.0" y="74.5" text-anchor="middle" font-family="ui-monospace, SFMono-Regular, Menlo, Consolas, monospace" font-size="12.5" fill="#1c1f1c">code corpus</text>
  <rect x="207.2" y="51.0" width="65.6" height="38.0" rx="6.0" fill="#fffdf9" stroke="#ddd8cd" stroke-width="1.4"/>
  <text x="240.0" y="74.5" text-anchor="middle" font-family="ui-monospace, SFMono-Regular, Menlo, Consolas, monospace" font-size="12.5" fill="#1c1f1c">chunk</text>
  <rect x="330.9" y="51.0" width="118.2" height="38.0" rx="6.0" fill="#fffdf9" stroke="#ddd8cd" stroke-width="1.4"/>
  <text x="390.0" y="74.5" text-anchor="middle" font-family="ui-monospace, SFMono-Regular, Menlo, Consolas, monospace" font-size="12.5" fill="#1c1f1c">vector store</text>
  <rect x="45.9" y="211.0" width="88.2" height="38.0" rx="6.0" fill="#e9f5ef" stroke="#147a4a" stroke-width="1.6"/>
  <text x="90.0" y="234.5" text-anchor="middle" font-family="ui-monospace, SFMono-Regular, Menlo, Consolas, monospace" font-size="12.5" fill="#1c1f1c">question</text>
  <rect x="184.6" y="211.0" width="110.7" height="38.0" rx="6.0" fill="#fffdf9" stroke="#ddd8cd" stroke-width="1.4"/>
  <text x="240.0" y="234.5" text-anchor="middle" font-family="ui-monospace, SFMono-Regular, Menlo, Consolas, monospace" font-size="12.5" fill="#1c1f1c">embed query</text>
  <rect x="367.1" y="211.0" width="125.8" height="38.0" rx="6.0" fill="#fffdf9" stroke="#ddd8cd" stroke-width="1.4"/>
  <text x="430.0" y="234.5" text-anchor="middle" font-family="ui-monospace, SFMono-Regular, Menlo, Consolas, monospace" font-size="12.5" fill="#1c1f1c">cosine search</text>
  <rect x="540.9" y="211.0" width="118.2" height="38.0" rx="6.0" fill="#fffdf9" stroke="#ddd8cd" stroke-width="1.4"/>
  <text x="600.0" y="234.5" text-anchor="middle" font-family="ui-monospace, SFMono-Regular, Menlo, Consolas, monospace" font-size="12.5" fill="#1c1f1c">top-k chunks</text>
  <rect x="692.1" y="203.0" width="155.8" height="54.0" rx="6.0" fill="#fffdf9" stroke="#ddd8cd" stroke-width="1.4"/>
  <text x="770.0" y="226.5" text-anchor="middle" font-family="ui-monospace, SFMono-Regular, Menlo, Consolas, monospace" font-size="12.5" fill="#1c1f1c">prompt: system,</text>
  <text x="770.0" y="242.5" text-anchor="middle" font-family="ui-monospace, SFMono-Regular, Menlo, Consolas, monospace" font-size="12.5" fill="#1c1f1c">context, question</text>
  <rect x="744.7" y="61.0" width="50.6" height="38.0" rx="6.0" fill="#fffdf9" stroke="#ddd8cd" stroke-width="1.4"/>
  <text x="770.0" y="84.5" text-anchor="middle" font-family="ui-monospace, SFMono-Regular, Menlo, Consolas, monospace" font-size="12.5" fill="#1c1f1c">LLM</text>
  <line x1="145.4" y1="70.0" x2="197.7" y2="70.0" stroke="#6f7570" stroke-width="1.5"/>
  <polygon points="207.2,70.0 197.7,74.6 197.7,65.4" fill="#6f7570"/>
  <line x1="272.8" y1="70.0" x2="321.4" y2="70.0" stroke="#6f7570" stroke-width="1.5"/>
  <polygon points="330.9,70.0 321.4,74.6 321.4,65.4" fill="#6f7570"/>
  <line x1="134.1" y1="230.0" x2="175.1" y2="230.0" stroke="#6f7570" stroke-width="1.5"/>
  <polygon points="184.6,230.0 175.1,234.6 175.1,225.4" fill="#6f7570"/>
  <line x1="295.4" y1="230.0" x2="357.6" y2="230.0" stroke="#6f7570" stroke-width="1.5"/>
  <polygon points="367.1,230.0 357.6,234.6 357.6,225.4" fill="#6f7570"/>
  <line x1="390.0" y1="89.0" x2="397.9" y2="201.5" stroke="#6f7570" stroke-width="1.5"/>
  <polygon points="398.6,211.0 393.3,201.8 402.5,201.2" fill="#6f7570"/>
  <rect x="343.0" y="137.0" width="102.1" height="26.0" rx="3.0" fill="#fffdf9" stroke="#ddd8cd" stroke-width="1.0"/>
  <text x="394.0" y="154.0" text-anchor="middle" font-family="ui-monospace, SFMono-Regular, Menlo, Consolas, monospace" font-size="11.0" fill="#565f5a">chunk vectors</text>
  <line x1="492.9" y1="230.0" x2="531.4" y2="230.0" stroke="#6f7570" stroke-width="1.5"/>
  <polygon points="540.9,230.0 531.4,234.6 531.4,225.4" fill="#6f7570"/>
  <line x1="659.1" y1="230.0" x2="682.6" y2="230.0" stroke="#6f7570" stroke-width="1.5"/>
  <polygon points="692.1,230.0 682.6,234.6 682.6,225.4" fill="#6f7570"/>
  <line x1="770.0" y1="203.0" x2="770.0" y2="108.5" stroke="#6f7570" stroke-width="1.5"/>
  <polygon points="770.0,99.0 774.6,108.5 765.4,108.5" fill="#6f7570"/>
  <rect x="705.7" y="138.0" width="128.5" height="26.0" rx="3.0" fill="#fffdf9" stroke="#ddd8cd" stroke-width="1.0"/>
  <text x="770.0" y="155.0" text-anchor="middle" font-family="ui-monospace, SFMono-Regular, Menlo, Consolas, monospace" font-size="11.0" fill="#565f5a">assembled context</text>
</svg>
