<svg xmlns="http://www.w3.org/2000/svg" viewBox="0 0 560.0 500.0" width="560.0" height="500.0" role="img" aria-label="Plan, act, observe, repeat - with two exits the loop does not control: the goal test and a guardrail trip on iteration count or a repeated call.">
  <title>Plan, act, observe, repeat - with two exits the loop does not control: the goal test and a guardrail trip on iteration count or a repeated call.</title>
  <rect x="221.0" y="43.0" width="58.1" height="38.0" rx="6.0" fill="#e9f5ef" stroke="#147a4a" stroke-width="1.6"/>
  <text x="250.0" y="66.5" text-anchor="middle" font-family="ui-monospace, SFMono-Regular, Menlo, Consolas, monospace" font-size="12.5" fill="#1c1f1c">plan</text>
  <rect x="183.4" y="133.0" width="133.3" height="38.0" rx="6.0" fill="#fffdf9" stroke="#ddd8cd" stroke-width="1.4"/>
  <text x="250.0" y="156.5" text-anchor="middle" font-family="ui-monospace, SFMono-Regular, Menlo, Consolas, monospace" font-size="12.5" fill="#1c1f1c">act: tool call</text>
  <rect x="160.8" y="223.0" width="178.4" height="38.0" rx="6.0" fill="#fffdf9" stroke="#ddd8cd" stroke-width="1.4"/>
  <text x="250.0" y="246.5" text-anchor="middle" font-family="ui-monospace, SFMono-Regular, Menlo, Consolas, monospace" font-size="12.5" fill="#1c1f1c">observe: tool result</text>
  <polygon points="250.0,312.2 343.1,345.0 250.0,377.8 156.9,345.0" fill="#fdf3e6" stroke="#a8630a" stroke-width="1.6" stroke-linejoin="round"/>
  <text x="250.0" y="349.5" text-anchor="middle" font-family="ui-monospace, SFMono-Regular, Menlo, Consolas, monospace" font-size="12.5" fill="#1c1f1c">goal reached?</text>
  <rect x="441.0" y="326.0" width="58.1" height="38.0" rx="6.0" fill="#e9f5ef" stroke="#147a4a" stroke-width="1.6"/>
  <text x="470.0" y="349.5" text-anchor="middle" font-family="ui-monospace, SFMono-Regular, Menlo, Consolas, monospace" font-size="12.5" fill="#1c1f1c">done</text>
  <rect x="172.1" y="425.0" width="155.8" height="54.0" rx="6.0" fill="#fbeeeb" stroke="#b7412f" stroke-width="1.6"/>
  <text x="250.0" y="448.5" text-anchor="middle" font-family="ui-monospace, SFMono-Regular, Menlo, Consolas, monospace" font-size="12.5" fill="#1c1f1c">max iterations or</text>
  <text x="250.0" y="464.5" text-anchor="middle" font-family="ui-monospace, SFMono-Regular, Menlo, Consolas, monospace" font-size="12.5" fill="#1c1f1c">loop detected</text>
  <line x1="250.0" y1="81.0" x2="250.0" y2="123.5" stroke="#6f7570" stroke-width="1.5"/>
  <polygon points="250.0,133.0 245.4,123.5 254.6,123.5" fill="#6f7570"/>
  <line x1="250.0" y1="171.0" x2="250.0" y2="213.5" stroke="#6f7570" stroke-width="1.5"/>
  <polygon points="250.0,223.0 245.4,213.5 254.6,213.5" fill="#6f7570"/>
  <line x1="250.0" y1="261.0" x2="250.0" y2="302.7" stroke="#6f7570" stroke-width="1.5"/>
  <polygon points="250.0,312.2 245.4,302.7 254.6,302.7" fill="#6f7570"/>
  <line x1="343.1" y1="345.0" x2="431.5" y2="345.0" stroke="#6f7570" stroke-width="1.5"/>
  <polygon points="441.0,345.0 431.5,349.6 431.5,340.4" fill="#6f7570"/>
  <rect x="374.1" y="332.0" width="35.9" height="26.0" rx="3.0" fill="#fffdf9" stroke="#ddd8cd" stroke-width="1.0"/>
  <text x="392.0" y="349.0" text-anchor="middle" font-family="ui-monospace, SFMono-Regular, Menlo, Consolas, monospace" font-size="11.0" fill="#565f5a">yes</text>
  <line x1="250.0" y1="377.8" x2="250.0" y2="415.5" stroke="#6f7570" stroke-width="1.5"/>
  <polygon points="250.0,425.0 245.4,415.5 254.6,415.5" fill="#6f7570"/>
  <rect x="195.7" y="388.4" width="108.7" height="26.0" rx="3.0" fill="#fffdf9" stroke="#ddd8cd" stroke-width="1.0"/>
  <text x="250.0" y="405.4" text-anchor="middle" font-family="ui-monospace, SFMono-Regular, Menlo, Consolas, monospace" font-size="11.0" fill="#565f5a">guardrail trip</text>
  <line x1="156.9" y1="345.0" x2="85.0" y2="345.0" stroke="#6f7570" stroke-width="1.5"/>
  <line x1="85.0" y1="345.0" x2="85.0" y2="62.0" stroke="#6f7570" stroke-width="1.5"/>
  <line x1="85.0" y1="62.0" x2="211.5" y2="62.0" stroke="#6f7570" stroke-width="1.5"/>
  <polygon points="221.0,62.0 211.5,66.6 211.5,57.4" fill="#6f7570"/>
  <rect x="30.7" y="187.0" width="108.7" height="26.0" rx="3.0" fill="#fffdf9" stroke="#ddd8cd" stroke-width="1.0"/>
  <text x="85.0" y="204.0" text-anchor="middle" font-family="ui-monospace, SFMono-Regular, Menlo, Consolas, monospace" font-size="11.0" fill="#565f5a">no, keep going</text>
</svg>
